<?xml version="1.0" encoding="UTF-8"?>
<svg xmlns="http://www.w3.org/2000/svg" xmlns:xlink="http://www.w3.org/1999/xlink" width="854" height="480" viewBox="0 0 854 480">
<defs>
<g>
<g id="glyph-0-0">
<path d="M 0.21875 0 L 0.21875 -0.234375 L 0.28125 -0.234375 C 0.40625 -0.234375 0.507812 -0.253906 0.59375 -0.296875 C 0.6875 -0.347656 0.734375 -0.460938 0.734375 -0.640625 L 0.734375 -3.34375 C 0.734375 -3.507812 0.6875 -3.613281 0.59375 -3.65625 C 0.507812 -3.707031 0.40625 -3.734375 0.28125 -3.734375 L 0.21875 -3.734375 L 0.21875 -3.96875 L 1.828125 -3.96875 L 1.828125 -3.734375 L 1.75 -3.734375 C 1.632812 -3.734375 1.53125 -3.710938 1.4375 -3.671875 C 1.34375 -3.628906 1.296875 -3.523438 1.296875 -3.359375 L 1.296875 -0.28125 L 2.390625 -0.28125 C 2.503906 -0.28125 2.59375 -0.300781 2.65625 -0.34375 C 2.726562 -0.394531 2.78125 -0.457031 2.8125 -0.53125 C 2.851562 -0.613281 2.878906 -0.695312 2.890625 -0.78125 L 2.9375 -1.203125 L 3.234375 -1.203125 L 3.1875 0 Z "/>
</g>
<g id="glyph-0-1">
<path d="M 1.140625 0.0625 C 0.890625 0.0625 0.679688 -0.0078125 0.515625 -0.15625 C 0.359375 -0.300781 0.28125 -0.523438 0.28125 -0.828125 C 0.28125 -1.128906 0.382812 -1.347656 0.59375 -1.484375 C 0.800781 -1.628906 1.117188 -1.707031 1.546875 -1.71875 L 2.015625 -1.734375 L 2.015625 -2.078125 C 2.015625 -2.210938 2 -2.328125 1.96875 -2.421875 C 1.945312 -2.523438 1.898438 -2.609375 1.828125 -2.671875 C 1.753906 -2.734375 1.640625 -2.765625 1.484375 -2.765625 C 1.347656 -2.765625 1.242188 -2.738281 1.171875 -2.6875 C 1.097656 -2.632812 1.046875 -2.5625 1.015625 -2.46875 C 0.992188 -2.375 0.984375 -2.269531 0.984375 -2.15625 C 0.828125 -2.15625 0.707031 -2.179688 0.625 -2.234375 C 0.550781 -2.285156 0.515625 -2.375 0.515625 -2.5 C 0.515625 -2.632812 0.554688 -2.738281 0.640625 -2.8125 C 0.734375 -2.894531 0.851562 -2.953125 1 -2.984375 C 1.15625 -3.015625 1.328125 -3.03125 1.515625 -3.03125 C 1.859375 -3.03125 2.113281 -2.957031 2.28125 -2.8125 C 2.445312 -2.675781 2.53125 -2.429688 2.53125 -2.078125 L 2.53125 -0.640625 C 2.53125 -0.484375 2.554688 -0.375 2.609375 -0.3125 C 2.660156 -0.257812 2.75 -0.234375 2.875 -0.234375 L 2.890625 -0.234375 L 2.890625 0 L 2.140625 0 L 2.046875 -0.484375 L 2.015625 -0.484375 C 1.929688 -0.378906 1.851562 -0.285156 1.78125 -0.203125 C 1.707031 -0.117188 1.617188 -0.0507812 1.515625 0 C 1.421875 0.0390625 1.296875 0.0625 1.140625 0.0625 Z M 1.265625 -0.296875 C 1.492188 -0.296875 1.675781 -0.363281 1.8125 -0.5 C 1.945312 -0.632812 2.015625 -0.820312 2.015625 -1.0625 L 2.015625 -1.515625 L 1.65625 -1.5 C 1.332031 -1.476562 1.109375 -1.410156 0.984375 -1.296875 C 0.867188 -1.191406 0.8125 -1.03125 0.8125 -0.8125 C 0.8125 -0.46875 0.960938 -0.296875 1.265625 -0.296875 Z "/>
</g>
<g id="glyph-0-2">
<path d="M 0.21875 1.078125 C 0.46875 1.078125 0.671875 1.023438 0.828125 0.921875 C 0.992188 0.828125 1.125 0.695312 1.21875 0.53125 C 1.320312 0.375 1.40625 0.191406 1.46875 -0.015625 L 0.4375 -2.453125 C 0.382812 -2.566406 0.332031 -2.644531 0.28125 -2.6875 C 0.226562 -2.726562 0.144531 -2.75 0.03125 -2.75 L 0.015625 -2.75 L 0.015625 -2.984375 L 1.359375 -2.984375 L 1.359375 -2.75 L 1.34375 -2.75 C 1.113281 -2.75 1 -2.660156 1 -2.484375 C 1 -2.421875 1.015625 -2.351562 1.046875 -2.28125 L 1.453125 -1.28125 C 1.492188 -1.195312 1.53125 -1.101562 1.5625 -1 C 1.601562 -0.894531 1.632812 -0.796875 1.65625 -0.703125 C 1.6875 -0.617188 1.707031 -0.546875 1.71875 -0.484375 C 1.75 -0.585938 1.785156 -0.695312 1.828125 -0.8125 C 1.867188 -0.925781 1.910156 -1.039062 1.953125 -1.15625 L 2.3125 -2.234375 C 2.351562 -2.328125 2.375 -2.40625 2.375 -2.46875 C 2.375 -2.65625 2.25 -2.75 2 -2.75 L 1.984375 -2.75 L 1.984375 -2.984375 L 3.140625 -2.984375 L 3.140625 -2.75 L 3.125 -2.75 C 3.019531 -2.75 2.9375 -2.71875 2.875 -2.65625 C 2.820312 -2.601562 2.765625 -2.488281 2.703125 -2.3125 L 1.859375 0.015625 C 1.765625 0.285156 1.671875 0.503906 1.578125 0.671875 C 1.492188 0.847656 1.394531 0.984375 1.28125 1.078125 C 1.175781 1.171875 1.039062 1.234375 0.875 1.265625 C 0.707031 1.304688 0.503906 1.328125 0.265625 1.328125 L 0.21875 1.328125 Z "/>
</g>
<g id="glyph-0-3">
<path d="M 1.59375 0.0625 C 1.1875 0.0625 0.867188 -0.0703125 0.640625 -0.34375 C 0.421875 -0.613281 0.3125 -0.988281 0.3125 -1.46875 C 0.3125 -1.988281 0.414062 -2.378906 0.625 -2.640625 C 0.84375 -2.898438 1.148438 -3.03125 1.546875 -3.03125 C 1.898438 -3.03125 2.179688 -2.921875 2.390625 -2.703125 C 2.597656 -2.484375 2.703125 -2.148438 2.703125 -1.703125 L 2.703125 -1.453125 L 0.84375 -1.453125 C 0.851562 -1.046875 0.925781 -0.75 1.0625 -0.5625 C 1.207031 -0.382812 1.410156 -0.296875 1.671875 -0.296875 C 1.867188 -0.296875 2.035156 -0.332031 2.171875 -0.40625 C 2.304688 -0.488281 2.40625 -0.582031 2.46875 -0.6875 C 2.5 -0.675781 2.523438 -0.648438 2.546875 -0.609375 C 2.566406 -0.578125 2.578125 -0.539062 2.578125 -0.5 C 2.578125 -0.425781 2.539062 -0.34375 2.46875 -0.25 C 2.394531 -0.164062 2.285156 -0.09375 2.140625 -0.03125 C 2.003906 0.03125 1.820312 0.0625 1.59375 0.0625 Z M 2.140625 -1.75 C 2.140625 -2.050781 2.09375 -2.289062 2 -2.46875 C 1.90625 -2.644531 1.75 -2.734375 1.53125 -2.734375 C 1.320312 -2.734375 1.160156 -2.648438 1.046875 -2.484375 C 0.941406 -2.316406 0.878906 -2.070312 0.859375 -1.75 Z "/>
</g>
<g id="glyph-0-4">
<path d="M 0.1875 0 L 0.1875 -0.234375 L 0.203125 -0.234375 C 0.328125 -0.234375 0.429688 -0.253906 0.515625 -0.296875 C 0.609375 -0.347656 0.65625 -0.460938 0.65625 -0.640625 L 0.65625 -2.375 C 0.65625 -2.53125 0.609375 -2.628906 0.515625 -2.671875 C 0.429688 -2.722656 0.328125 -2.75 0.203125 -2.75 L 0.1875 -2.75 L 0.1875 -2.984375 L 1.046875 -2.984375 L 1.140625 -2.4375 L 1.171875 -2.4375 C 1.222656 -2.539062 1.273438 -2.640625 1.328125 -2.734375 C 1.378906 -2.828125 1.453125 -2.898438 1.546875 -2.953125 C 1.640625 -3.003906 1.769531 -3.03125 1.9375 -3.03125 C 2.132812 -3.03125 2.28125 -2.992188 2.375 -2.921875 C 2.476562 -2.859375 2.53125 -2.757812 2.53125 -2.625 C 2.53125 -2.507812 2.488281 -2.414062 2.40625 -2.34375 C 2.332031 -2.269531 2.203125 -2.234375 2.015625 -2.234375 C 2.015625 -2.390625 1.992188 -2.5 1.953125 -2.5625 C 1.910156 -2.632812 1.832031 -2.671875 1.71875 -2.671875 C 1.613281 -2.671875 1.523438 -2.628906 1.453125 -2.546875 C 1.390625 -2.460938 1.335938 -2.359375 1.296875 -2.234375 C 1.253906 -2.109375 1.222656 -1.976562 1.203125 -1.84375 C 1.179688 -1.707031 1.171875 -1.585938 1.171875 -1.484375 L 1.171875 -0.609375 C 1.171875 -0.441406 1.21875 -0.335938 1.3125 -0.296875 C 1.40625 -0.253906 1.515625 -0.234375 1.640625 -0.234375 L 1.796875 -0.234375 L 1.796875 0 Z "/>
</g>
<g id="glyph-0-5">
<path d="M 0.21875 0 L 0.21875 -0.234375 L 0.28125 -0.234375 C 0.40625 -0.234375 0.507812 -0.253906 0.59375 -0.296875 C 0.6875 -0.347656 0.734375 -0.460938 0.734375 -0.640625 L 0.734375 -3.359375 C 0.734375 -3.523438 0.6875 -3.628906 0.59375 -3.671875 C 0.507812 -3.710938 0.40625 -3.734375 0.28125 -3.734375 L 0.21875 -3.734375 L 0.21875 -3.96875 L 1.234375 -3.96875 L 3.21875 -0.890625 L 3.21875 -3.359375 C 3.21875 -3.523438 3.171875 -3.628906 3.078125 -3.671875 C 2.992188 -3.710938 2.890625 -3.734375 2.765625 -3.734375 L 2.6875 -3.734375 L 2.6875 -3.96875 L 4.09375 -3.96875 L 4.09375 -3.734375 L 4.015625 -3.734375 C 3.890625 -3.734375 3.78125 -3.707031 3.6875 -3.65625 C 3.601562 -3.613281 3.5625 -3.507812 3.5625 -3.34375 L 3.5625 0 L 3.171875 0 L 1.078125 -3.203125 L 1.078125 -0.640625 C 1.078125 -0.460938 1.117188 -0.347656 1.203125 -0.296875 C 1.296875 -0.253906 1.40625 -0.234375 1.53125 -0.234375 L 1.609375 -0.234375 L 1.609375 0 Z "/>
</g>
<g id="glyph-0-6">
<path d="M 1.59375 0.0625 C 1.195312 0.0625 0.882812 -0.0664062 0.65625 -0.328125 C 0.425781 -0.585938 0.3125 -0.976562 0.3125 -1.5 C 0.3125 -2.019531 0.421875 -2.40625 0.640625 -2.65625 C 0.859375 -2.90625 1.179688 -3.03125 1.609375 -3.03125 C 2.015625 -3.03125 2.332031 -2.90625 2.5625 -2.65625 C 2.789062 -2.40625 2.90625 -2.019531 2.90625 -1.5 C 2.90625 -0.976562 2.789062 -0.585938 2.5625 -0.328125 C 2.34375 -0.0664062 2.019531 0.0625 1.59375 0.0625 Z M 1.609375 -0.234375 C 1.890625 -0.234375 2.082031 -0.335938 2.1875 -0.546875 C 2.300781 -0.765625 2.359375 -1.082031 2.359375 -1.5 C 2.359375 -1.914062 2.300781 -2.226562 2.1875 -2.4375 C 2.070312 -2.644531 1.878906 -2.75 1.609375 -2.75 C 1.328125 -2.75 1.128906 -2.644531 1.015625 -2.4375 C 0.898438 -2.226562 0.84375 -1.914062 0.84375 -1.5 C 0.84375 -1.082031 0.898438 -0.765625 1.015625 -0.546875 C 1.128906 -0.335938 1.328125 -0.234375 1.609375 -0.234375 Z "/>
</g>
<g id="glyph-0-7">
<path d="M 0.15625 0 L 0.15625 -0.234375 L 0.234375 -0.234375 C 0.359375 -0.234375 0.457031 -0.253906 0.53125 -0.296875 C 0.613281 -0.347656 0.65625 -0.460938 0.65625 -0.640625 L 0.65625 -2.375 C 0.65625 -2.53125 0.613281 -2.628906 0.53125 -2.671875 C 0.445312 -2.722656 0.347656 -2.75 0.234375 -2.75 L 0.21875 -2.75 L 0.21875 -2.984375 L 1.078125 -2.984375 L 1.15625 -2.53125 L 1.1875 -2.53125 C 1.300781 -2.738281 1.425781 -2.875 1.5625 -2.9375 C 1.695312 -3 1.851562 -3.03125 2.03125 -3.03125 C 2.207031 -3.03125 2.363281 -2.992188 2.5 -2.921875 C 2.644531 -2.847656 2.753906 -2.71875 2.828125 -2.53125 L 2.875 -2.53125 C 2.988281 -2.738281 3.117188 -2.875 3.265625 -2.9375 C 3.421875 -3 3.582031 -3.03125 3.75 -3.03125 C 4.03125 -3.03125 4.25 -2.941406 4.40625 -2.765625 C 4.570312 -2.597656 4.65625 -2.328125 4.65625 -1.953125 L 4.65625 -0.640625 C 4.65625 -0.460938 4.691406 -0.347656 4.765625 -0.296875 C 4.847656 -0.253906 4.953125 -0.234375 5.078125 -0.234375 L 5.09375 -0.234375 L 5.09375 0 L 4.140625 0 L 4.140625 -1.921875 C 4.140625 -2.160156 4.09375 -2.347656 4 -2.484375 C 3.914062 -2.617188 3.765625 -2.6875 3.546875 -2.6875 C 3.398438 -2.6875 3.28125 -2.644531 3.1875 -2.5625 C 3.09375 -2.488281 3.023438 -2.390625 2.984375 -2.265625 C 2.953125 -2.140625 2.9375 -2.003906 2.9375 -1.859375 L 2.9375 -0.640625 C 2.9375 -0.460938 2.972656 -0.347656 3.046875 -0.296875 C 3.128906 -0.253906 3.234375 -0.234375 3.359375 -0.234375 L 3.375 -0.234375 L 3.375 0 L 2.40625 0 L 2.40625 -1.921875 C 2.40625 -2.160156 2.359375 -2.347656 2.265625 -2.484375 C 2.179688 -2.617188 2.035156 -2.6875 1.828125 -2.6875 C 1.660156 -2.6875 1.53125 -2.644531 1.4375 -2.5625 C 1.34375 -2.476562 1.273438 -2.363281 1.234375 -2.21875 C 1.191406 -2.082031 1.171875 -1.9375 1.171875 -1.78125 L 1.171875 -0.609375 C 1.171875 -0.441406 1.21875 -0.335938 1.3125 -0.296875 C 1.40625 -0.253906 1.515625 -0.234375 1.640625 -0.234375 L 1.65625 -0.234375 L 1.65625 0 Z "/>
</g>
</g>
</defs>
<g fill="rgb(100%, 100%, 100%)" fill-opacity="1">
<use xlink:href="#glyph-0-0" x="30" y="25.939453"/>
<use xlink:href="#glyph-0-1" x="33" y="25.939453"/>
<use xlink:href="#glyph-0-2" x="36" y="25.939453"/>
<use xlink:href="#glyph-0-3" x="39" y="25.939453"/>
<use xlink:href="#glyph-0-4" x="42" y="25.939453"/>
<use xlink:href="#glyph-0-5" x="45" y="25.939453"/>
<use xlink:href="#glyph-0-6" x="49" y="25.939453"/>
<use xlink:href="#glyph-0-4" x="52" y="25.939453"/>
<use xlink:href="#glyph-0-7" x="55" y="25.939453"/>
</g>
</svg>
